<?xml version="1.0" encoding="UTF-8"?>
<svg id="Layer_1" data-name="Layer 1" xmlns="http://www.w3.org/2000/svg" viewBox="0 0 900 500">
  <path id="MCP" d="M0,81.36527s12.63061,9.53402,17.22267,12.81404c1.56092,1.11495,0,0,12.80931,5.69932,15.56374,6.92487,25.20289,21.13086,42.17231,22.62169,14.28318,1.25483,30.90356-3.39851,43.8142-2.798,28.20838,1.31201,35.13887-2.10869,35.13887-2.10869l19.18069,10.7055,18.95596,16.91185,17.09799,14.46001,11.67474-.59354,11.80701-6.73997,9.30093-8.75385,13.68493-13.94631,18.28856-14.274,18.73463-8.02913,13.54782.48813,16.3319-2.96944,26.1618-4.45415,12.44087,8.90831,23.75549,17.81661,13.87133,23.76333s16.43057,20.36947,19.53482,20.03585c3.10425-.33359,18.29687,16.3319,21.52841,16.3319s20.85877,12.75969,23.01313,14.91404c2.15433,2.15436,13.36246,15.52267,13.36246,15.52267,0,0,4.64318,7.97477,8.95187,7.97477s12.12646,12.57559,12.12646,12.57559c0,0,12.75635,13.77995,14.3721,16.16861,1.61575,2.38867,19.65439,18.8055,20.73154,20.42126,1.07721,1.61575,14.55811,14.29695,15.09668,15.91272.53864,1.61575,12.41266,16.53532,12.2406,19.58488-.17212,3.04955,2.45459,5.58231,1.82953,11.50676s2.45032,12.1904,4.42285,20.02316-1.52924,12.3875,0,18.85054c1.5293,6.46304.08649,12.92608,0,16.69618s-2.50824,11.88693-6.14465,13.21439-12.79236,9.40625-12.79236,9.40625l-6.46301,7.54021s1.61572,7.54021,4.84723,8.0788c3.23157.53858,15.61902,7.00163,17.2348,7.00163s7.54022,5.38586,10.23315,8.61739,14.54181,15.61901,14.54181,15.61901l8.61743,9.69456,14.00323-6.46304s-3.4798-23.08895-2.81708-29.58713,3.88495-8.94998,6.92096-8.845,9.31006,1.59995,11.71704,5.05197,0,10.22093,0,10.22093l7.47198-.3979s5.008,4.87802,5.35901,6.31,7.43335,4.85964,7.43335,4.85964l3.45728,4.84728,7.07739,15.97506.63861,4.72799.25739-22.14099-2.80103-17.06598,6.98938-12.39122,6.73163-7.49278s-9.42456-26.24248-11.04028-29.474c-1.61578-3.23152-14.0033-23.69781-14.0033-32.85379s-2.1543-15.619-2.69293-17.23477c-.53857-1.61575-12.92603-15.08043-12.92603-21.00488s-6.4679-20.043-6.4679-20.043c0,0-10.35382-8.94153-10.35382-13.25023s5.5115-17.80255,5.5115-21.33833,2.86424-8.96522,2.64176-21.168c-.12092-6.63229.99996-23.86574,17.36255-32.96729,10.13992-5.64024,57.73334.09686,64.06744-6.18872l-24.99585-18.88818-6.95013-12.95682-16.521,1.952-13.0235-3.02411-7.71869-2.74777-17.01709-2.87674-11.54858,2.79703-9.11371-11.85349-11.83893-2.00751-2.14862-6.34885-3.78589-12.62155,3.12897-18.802,5.36304-2.216-2.94104-5.53201,5.55804-5.4212,4.74237-9.33493-2.21411-9.91394-8.83826-7.36523-13.25739-5.89215-6.46486-3.72917-14.64879-7.07317-21.12683-7.58279-21.10196-5.49598-22.50887-4.88532-24.12233-.8871-21.67754,4.55109-44.79596-4.901-10.19383,16.68081-7.41369,12.97396-15.7541,1.85342-11.8829,14.30471-14.06502,5.15623-15.7541.92671-19.46094,2.78013-25.00989-6.57037-29.825-.4971-29.14505,12.59339c-12.05328,7.18469-34.90592-.56573-43.90626-10.15948l-26.85794-18.26806-20.99229-5.90408s-34.11247-13.12018-41.32857-15.08821S26.14524,19.98894,26.14524,19.98894L7.77698,5.55674,0,0v81.36527Z" style="fill: rgba(225, 87, 89, .23);"/>
  <path id="LCRV" d="M487.03713,288.60301c0-1.14002,1.52002-2.0267,1.52002-2.66004s2.40671-2.0267,2.40671-2.0267c0,0,1.39336-1.14002,2.0267-1.14002s2.16536,1.14002,2.16536,1.14002c0,0,2.14138,1.90003,3.28139,1.90003s.88668,1.77336.88668,2.15337-.12667,1.39336-1.01335,1.39336-7.34678,1.01335-7.34678,1.01335c0,0-3.92673-.63334-3.92673-1.77336ZM502.32637,300.17189c.43163.10791,4.91103-.64745,4.91103-.64745l3.61373,2.15817s2.37398-.21582,2.48189-.97118-3.45307-2.37398-4.20843-2.80562-1.61863-1.83444-2.37398-1.72653-5.7028,1.08559-5.61124,1.72653c.21582,1.51072.75536,2.15817,1.18699,2.26608ZM491.44768,296.17338s1.70648-1.50482,1.74487-2.5839-.57793-1.2949-.57793-1.2949c0,0-.75536,1.18699-1.51072.75536s-1.40281,0-1.40281,0c-.53954,1.2949,1.74659,3.12344,1.74659,3.12344ZM520.81105,307.5547c.14025.69249,1.04674,1.03404,1.15465,1.35777s-.53954,1.83444-.53954,3.45307,3.45307,4.42424,4.31634,4.20843-1.0545-9.49996-.6135-9.55696-2.51585-1.12597-3.2712-1.12597-2.82851-3.28625-2.91353-2.26608c-.10791,1.2949,1.72653,3.23725,1.86679,3.92974ZM490.56436,314.4158c0,1.51072-3.23725,6.25869-3.52723,8.20104s2.12442,6.69032,1.58488,9.28012-.10791,7.01404,0,7.87731,5.28751,3.56098,6.15078,3.8847,4.64006,3.45307,6.36534,3.66889,6.25994-.32373,6.79948-.32373.75536,1.83444.97118,2.48189,3.02143-.43163,5.27918-1.43938,1.30323-4.49558,1.30323-7.40911-2.5898-4.10052-3.5822-6.22067-1.62641-6.66463-2.06418-7.4837-2.55465-1.40281-3.31001-2.05026-1.40281-6.04287-1.40281-7.01404,4.53215-2.5898,5.1796-4.74797-.10791-5.1796-1.55857-4.10052-17.99667,1.13036-18.32198,1.88541c-.67285,1.56168.13331,1.99929.13331,3.51001ZM526.82157,337.6161c-.43163.86327-1.07908,2.05026,0,2.5898s1.72653-2.26608,2.05026-3.23725-.25383-4.36163-.64745-3.99261c-1.72653,1.61863-.97118,3.77679-1.40281,4.64006ZM503.43467,347.34541c.31479,2.74089,3.6349,26.67802,3.8021,30.51526s-.74642,8.95358,1.26356,8.95358h4.83509s-1.40328,4.88791,1.01215,7.12632,1.96054,4.38543,8.10659,1.46181,6.14605-3.10634,7.79058-3.10634,0-3.83725,0-3.83725c0,0-3.28183-1.09636-2.64591,0s0,2.00999,0,2.00999c0,0-7.64981,6.1102-9.20083,4.3612s-2.69299-2.50699-2.12201-5.15698.74402-6.27796,1.36651-7.00098-2.06342-.3287-1.95096-2.80136-1.64108-5.21976-2.35613-5.81045-2.27692-10.81763-2.27692-12.82762-2.72753-15.51434-2.72753-15.51434M503.43467,389.94813c.38993.87608.82797,3.28531,2.36112,4.38041s3.71763,3.67333,4.04902,2.49373,1.63979-.96058,0-4.24589-6.41014-2.62825-6.41014-2.62825Z" style="fill: #4e79a7; opacity: .4;"/>
  <path id="EP" d="M754.34302,397.20999s7.58606,13.2296,11.84374,14.02791,6.12042,3.45937,6.12042,0-2.76515-12.07592-2.92716-14.02791-14.09798-11.82803-14.087-15.60001.14348-13.78318.78173-15.87609-10.37811-13.57137-12.77305-17.03074-12.77305-13.57137-13.30527-16.49853-11.07214-14.56574-11.07214-15.96632-11.7791-23.24328-11.7791-23.24328c0,0,20.72239-2.56893,22.05292-4.69778s4.87111-5.05043,2.3025-12.63722,6.78837-12.83203,6.78837-12.83203c0,0,13.26197,5.24525,14.59249,1.51977s-1.59663-7.18484-1.59663-7.18484c0,0-.43989-9.57593.45311-12.27893s7.48471-8.03854,22.96416-9.80781c8.86998-1.01382,6.03658-26.27021,6.03658-26.27021,0,0-31.29089-9.21579-71.76459-5.92853-7.52967.61156-30.4354-1.50114-49.76169,8.24926-20.40434,10.29429-34.32758,21.55453-33.52927,33.52927s2.92716,33.26316,13.83748,36.45643,21.68138,12.20695,30.66553,12.75611,14.83847,1.08137,15.90289,1.87968-3.31023,21.19136-4.05006,27.9158.01652,13.90402,2.20727,17.01401,6.36659,10.0646,17.2769,12.77035,25.28,14.14827,25.54611,15.2127,3.08549,9.70513,6.46569,13.36794,20.80804,15.181,20.80804,15.181Z" style="fill: rgba(118, 183, 178, .54);"/>
  <path id="RMP" d="M525.16558,240.02278l3.61591,14.46365,9.35883,10.20964s7.36973,6.35937,9.14613,8.72073c2.94491,3.91465.2127,7.01912.2127,8.93343s3.90384,11.2213,5.10482,18.71767c1.98683,12.40154,12.556,10.36512,12.75437,15.66188.13241,3.53556-15.03739-2.06306-20.80649-1.76833s-6.41152,4.39871-7.47503,5.03682-2.55241,4.04131-2.97781,6.59372-3.61591,4.67942-7.23183,4.67942-5.31752-9.57153-6.16832-11.27314-6.59372-10.20964-8.08263-10.54972-8.26132,0-8.26132,0c0,0-5.77693-8.80604-7.05314-14.97436s-1.91431-27.01299,0-29.14,15.31445-23.39708,15.31445-23.39708l12.54934-1.91431ZM565.36602,347.01125c-.2127,1.70161,4.04131,0,6.91277,0s2.87146-.6381,2.87146-1.70161-3.19051-4.04131-5.74292-4.04131c0,0-3.82861,4.04131-4.04131,5.74292ZM560.89931,375.72585c0,1.91431-2.97781,2.76511-3.19051,4.67942s-.2127,5.74292-.4254,7.65723-1.48891,3.82861-1.48891,3.82861c0,0-4.89212,2.33971-5.47354,3.61591s1.85763,3.82861,1.85763,4.67942,5.31752,4.25401,5.31752,4.25401c0,0,5.10482,1.0635,5.95562,1.0635s1.70161,2.33971,1.70161,3.40321,1.2762,9.99693,1.2762,9.99693c0,0-1.48891,5.53022-1.48891,8.08263s7.44453,5.53022,7.44453,5.53022c0,0,2.33971,4.67942,2.33971,7.44453s4.25401,4.89212,5.31752,5.10482,7.44453,2.12701,8.93343,2.97781,5.95562,10.42234,5.95562,10.42234c0,0,5.53022,3.61591,7.44453,3.40321s4.04131,0,4.04131,0l1.70161-4.45717s-2.55241-.22225-4.04131-.00955-2.76511-3.19051-4.67942-4.04131-7.86993-10.20964-7.86993-10.20964l-7.23183-13.40015-6.38102-14.25095s-1.2762-8.08263-1.2762-9.78423-4.25401-7.23183-4.46672-8.72073-3.40321-7.01912-3.40321-8.50803-1.48891-8.93343-1.48891-11.69854-2.76511-6.16832-3.82861-6.16832c0,0-2.55241,3.19051-2.55241,5.10482ZM557.4873,386.26758l-.10352-.99414c-.68457.07031-1.49414.11719-1.96289.0918.36328-.85449,1.58691-2.9375,2.70898-4.69043l.16309-.25488-2.57617-4.52148c1.08789-.04785,2.82129-.29688,3.36719-1.36914.37793-.74414.12207-1.67188-.7627-2.75684-2.21777-2.71875-1.26465-4.37012-.42383-5.82715.19434-.33789.37305-.65137.49707-.94531.56152-1.33594,3.52734-3.49414,5.98633-4.35645,3.26172-1.14355,1.94824-8.71191,1.46777-11.00488-.44531-2.12598-2.47656-2.65625-4.26758-3.12402-1.8457-.48145-2.97852-.86133-3.13965-2.06348-.03516-.26855.05469-.40234.1377-.48926.85742-.89648,4.54883-.56152,7.24512-.31641,2.56055.23145,4.04004.34375,4.68359-.03516.28125-.16602.45312-.42188.48438-.72168.08691-.82812-.84668-1.72656-2.50293-3.24512-1.08984-.99805-2.44629-2.24121-2.64648-2.99219-.26074-.97266-.98242-2.34473-1.68164-3.67188-.71387-1.35645-1.52246-2.89258-1.52246-3.48145,0-.58984,2.14746-1.97852,4.0752-2.85547l.18945-.08594.07227-.19531c.12109-.32422,1.17969-3.20703,1.17969-4.36621,0-1.17285-1.96484-4.79297-2.35938-5.50684l-.875.48242c.92773,1.68164,2.23438,4.35254,2.23438,5.02441,0,.77344-.69922,2.86621-1.04688,3.8252-1.26562.59082-4.46973,2.23047-4.46973,3.67773,0,.83594.75879,2.27734,1.6377,3.94727.67285,1.27832,1.36914,2.60059,1.59961,3.46387.27637,1.0332,1.62988,2.27344,2.9375,3.47168.82031.75195,2.19238,2.00879,2.18652,2.36816-.39746.23633-2.44141.0498-4.08594-.09961-4.02148-.36426-6.95215-.53223-8.05664.62109-.33496.34863-.47461.80273-.40625,1.31348.26172,1.95508,2.18262,2.45605,3.87695,2.89844,1.65723.43262,3.22363.84082,3.54199,2.36133.92969,4.4375,1.03613,9.20508-.81934,9.85645-2.49902.87598-5.84277,3.16309-6.57812,4.91211-.10938.25977-.26953.53516-.44141.83398-.85156,1.47559-2.13867,3.70508.51465,6.95898.59375.72754.82422,1.32129.64648,1.66992-.34082.67188-2.13281.88672-3.30957.82422l-.91406-.04883,3.15625,5.54004c-2.99512,4.70508-2.84375,5.25586-2.78516,5.46484l.09375.2627.19922.09961c.22754.11328.66504.15234,1.15527.15234.58105,0,1.23633-.05469,1.69922-.10254Z" style="fill: #f28e2c; opacity: .5;"/>
</svg>